<mxfile host="app.diagrams.net" modified="2023-06-08T04:02:17.372Z" agent="Mozilla/5.0 (Macintosh; Intel Mac OS X 10_15_7) AppleWebKit/537.36 (KHTML, like Gecko) Chrome/113.0.0.0 Safari/537.36" etag="_FJk7Uptehfj1ceW0eAh" version="21.3.7" type="github" pages="3">
  <diagram name="หน้า-1" id="tiCta9_tQPxMo0woJ-PT">
    <mxGraphModel dx="1418" dy="749" grid="1" gridSize="10" guides="1" tooltips="1" connect="1" arrows="1" fold="1" page="1" pageScale="1" pageWidth="827" pageHeight="1169" math="0" shadow="0">
      <root>
        <mxCell id="0" />
        <mxCell id="1" parent="0" />
        <mxCell id="zOOIBj5y91EJWNY3sWVs-1" value="เริ่ม" style="ellipse;whiteSpace=wrap;html=1;" vertex="1" parent="1">
          <mxGeometry x="212" y="130" width="80" height="40" as="geometry" />
        </mxCell>
        <mxCell id="zOOIBj5y91EJWNY3sWVs-2" value="ตรวจสอบสิทธิ์การใช้งาน" style="rounded=1;whiteSpace=wrap;html=1;" vertex="1" parent="1">
          <mxGeometry x="182" y="210" width="140" height="30" as="geometry" />
        </mxCell>
        <mxCell id="zOOIBj5y91EJWNY3sWVs-3" value="" style="edgeStyle=orthogonalEdgeStyle;rounded=0;orthogonalLoop=1;jettySize=auto;html=1;" edge="1" parent="1" source="zOOIBj5y91EJWNY3sWVs-1" target="zOOIBj5y91EJWNY3sWVs-2">
          <mxGeometry relative="1" as="geometry" />
        </mxCell>
        <mxCell id="zOOIBj5y91EJWNY3sWVs-4" value="มี ?" style="rhombus;whiteSpace=wrap;html=1;" vertex="1" parent="1">
          <mxGeometry x="222" y="270" width="60" height="60" as="geometry" />
        </mxCell>
        <mxCell id="zOOIBj5y91EJWNY3sWVs-5" value="" style="edgeStyle=orthogonalEdgeStyle;rounded=0;orthogonalLoop=1;jettySize=auto;html=1;" edge="1" parent="1" source="zOOIBj5y91EJWNY3sWVs-2" target="zOOIBj5y91EJWNY3sWVs-4">
          <mxGeometry relative="1" as="geometry" />
        </mxCell>
        <mxCell id="zOOIBj5y91EJWNY3sWVs-6" value="สิ้นสุด" style="ellipse;whiteSpace=wrap;html=1;" vertex="1" parent="1">
          <mxGeometry x="407" y="820" width="80" height="40" as="geometry" />
        </mxCell>
        <mxCell id="zOOIBj5y91EJWNY3sWVs-7" style="edgeStyle=orthogonalEdgeStyle;rounded=0;orthogonalLoop=1;jettySize=auto;html=1;entryX=0;entryY=0.5;entryDx=0;entryDy=0;" edge="1" parent="1" source="zOOIBj5y91EJWNY3sWVs-4" target="zOOIBj5y91EJWNY3sWVs-6">
          <mxGeometry relative="1" as="geometry">
            <Array as="points">
              <mxPoint x="252" y="840" />
            </Array>
          </mxGeometry>
        </mxCell>
        <mxCell id="zOOIBj5y91EJWNY3sWVs-8" value="ไม่" style="edgeLabel;html=1;align=center;verticalAlign=middle;resizable=0;points=[];" vertex="1" connectable="0" parent="zOOIBj5y91EJWNY3sWVs-7">
          <mxGeometry x="-0.8925" y="1" relative="1" as="geometry">
            <mxPoint as="offset" />
          </mxGeometry>
        </mxCell>
        <mxCell id="zOOIBj5y91EJWNY3sWVs-9" value="ตรวจสอบ Account &lt;br&gt;สถานะการใช้งาน" style="rounded=1;whiteSpace=wrap;html=1;" vertex="1" parent="1">
          <mxGeometry x="398.35" y="279" width="170" height="40" as="geometry" />
        </mxCell>
        <mxCell id="zOOIBj5y91EJWNY3sWVs-10" value="" style="edgeStyle=orthogonalEdgeStyle;rounded=0;orthogonalLoop=1;jettySize=auto;html=1;" edge="1" parent="1" source="zOOIBj5y91EJWNY3sWVs-4" target="zOOIBj5y91EJWNY3sWVs-9">
          <mxGeometry relative="1" as="geometry">
            <Array as="points">
              <mxPoint x="362" y="300" />
              <mxPoint x="362" y="300" />
            </Array>
          </mxGeometry>
        </mxCell>
        <mxCell id="zOOIBj5y91EJWNY3sWVs-11" value="ใช่" style="edgeLabel;html=1;align=center;verticalAlign=middle;resizable=0;points=[];" vertex="1" connectable="0" parent="zOOIBj5y91EJWNY3sWVs-10">
          <mxGeometry x="-0.7797" y="-1" relative="1" as="geometry">
            <mxPoint as="offset" />
          </mxGeometry>
        </mxCell>
        <mxCell id="zOOIBj5y91EJWNY3sWVs-12" value="มีใน&lt;br&gt;ระบบ &lt;br&gt;?" style="rhombus;whiteSpace=wrap;html=1;" vertex="1" parent="1">
          <mxGeometry x="445.85" y="358" width="75" height="70" as="geometry" />
        </mxCell>
        <mxCell id="zOOIBj5y91EJWNY3sWVs-13" value="" style="edgeStyle=orthogonalEdgeStyle;rounded=0;orthogonalLoop=1;jettySize=auto;html=1;" edge="1" parent="1" source="zOOIBj5y91EJWNY3sWVs-9" target="zOOIBj5y91EJWNY3sWVs-12">
          <mxGeometry relative="1" as="geometry" />
        </mxCell>
        <mxCell id="zOOIBj5y91EJWNY3sWVs-14" value="status&lt;br style=&quot;border-color: var(--border-color);&quot;&gt;= 1 ?" style="rhombus;whiteSpace=wrap;html=1;" vertex="1" parent="1">
          <mxGeometry x="453.35" y="478" width="60" height="60" as="geometry" />
        </mxCell>
        <mxCell id="zOOIBj5y91EJWNY3sWVs-15" value="" style="edgeStyle=orthogonalEdgeStyle;rounded=0;orthogonalLoop=1;jettySize=auto;html=1;" edge="1" parent="1" source="zOOIBj5y91EJWNY3sWVs-12" target="zOOIBj5y91EJWNY3sWVs-14">
          <mxGeometry relative="1" as="geometry" />
        </mxCell>
        <mxCell id="zOOIBj5y91EJWNY3sWVs-16" value="ใช่" style="edgeLabel;html=1;align=center;verticalAlign=middle;resizable=0;points=[];" vertex="1" connectable="0" parent="zOOIBj5y91EJWNY3sWVs-15">
          <mxGeometry x="-0.3254" y="2" relative="1" as="geometry">
            <mxPoint x="-2" as="offset" />
          </mxGeometry>
        </mxCell>
        <mxCell id="zOOIBj5y91EJWNY3sWVs-17" value="Locked&lt;br style=&quot;border-color: var(--border-color);&quot;&gt;= 1 ?&amp;nbsp;" style="rhombus;whiteSpace=wrap;html=1;" vertex="1" parent="1">
          <mxGeometry x="453.35" y="608" width="60" height="60" as="geometry" />
        </mxCell>
        <mxCell id="zOOIBj5y91EJWNY3sWVs-18" value="" style="edgeStyle=orthogonalEdgeStyle;rounded=0;orthogonalLoop=1;jettySize=auto;html=1;" edge="1" parent="1" source="zOOIBj5y91EJWNY3sWVs-14" target="zOOIBj5y91EJWNY3sWVs-17">
          <mxGeometry relative="1" as="geometry" />
        </mxCell>
        <mxCell id="zOOIBj5y91EJWNY3sWVs-19" value="ไม่" style="edgeLabel;html=1;align=center;verticalAlign=middle;resizable=0;points=[];" vertex="1" connectable="0" parent="zOOIBj5y91EJWNY3sWVs-18">
          <mxGeometry x="-0.3745" relative="1" as="geometry">
            <mxPoint as="offset" />
          </mxGeometry>
        </mxCell>
        <mxCell id="zOOIBj5y91EJWNY3sWVs-20" style="edgeStyle=orthogonalEdgeStyle;rounded=0;orthogonalLoop=1;jettySize=auto;html=1;entryX=0;entryY=0;entryDx=0;entryDy=0;" edge="1" parent="1" source="zOOIBj5y91EJWNY3sWVs-21" target="zOOIBj5y91EJWNY3sWVs-6">
          <mxGeometry relative="1" as="geometry">
            <Array as="points">
              <mxPoint x="390" y="820" />
              <mxPoint x="419" y="820" />
            </Array>
          </mxGeometry>
        </mxCell>
        <mxCell id="zOOIBj5y91EJWNY3sWVs-21" value="" style="ellipse;whiteSpace=wrap;html=1;aspect=fixed;" vertex="1" parent="1">
          <mxGeometry x="365.75" y="690" width="30" height="30" as="geometry" />
        </mxCell>
        <mxCell id="zOOIBj5y91EJWNY3sWVs-22" style="edgeStyle=orthogonalEdgeStyle;rounded=0;orthogonalLoop=1;jettySize=auto;html=1;" edge="1" parent="1" source="zOOIBj5y91EJWNY3sWVs-23" target="zOOIBj5y91EJWNY3sWVs-21">
          <mxGeometry relative="1" as="geometry">
            <Array as="points">
              <mxPoint x="282" y="393" />
              <mxPoint x="282" y="710" />
            </Array>
          </mxGeometry>
        </mxCell>
        <mxCell id="zOOIBj5y91EJWNY3sWVs-23" value="rerturn Error Code&amp;nbsp;001&lt;span style=&quot;font-size: medium; text-align: start;&quot;&gt;&lt;/span&gt;" style="rounded=1;whiteSpace=wrap;html=1;" vertex="1" parent="1">
          <mxGeometry x="292" y="373" width="77.5" height="40" as="geometry" />
        </mxCell>
        <mxCell id="zOOIBj5y91EJWNY3sWVs-24" style="edgeStyle=orthogonalEdgeStyle;rounded=0;orthogonalLoop=1;jettySize=auto;html=1;" edge="1" parent="1" source="zOOIBj5y91EJWNY3sWVs-12" target="zOOIBj5y91EJWNY3sWVs-23">
          <mxGeometry relative="1" as="geometry">
            <mxPoint x="382.1" y="498" as="targetPoint" />
          </mxGeometry>
        </mxCell>
        <mxCell id="zOOIBj5y91EJWNY3sWVs-25" value="ไม่" style="edgeLabel;html=1;align=center;verticalAlign=middle;resizable=0;points=[];" vertex="1" connectable="0" parent="zOOIBj5y91EJWNY3sWVs-24">
          <mxGeometry x="-0.6573" y="2" relative="1" as="geometry">
            <mxPoint as="offset" />
          </mxGeometry>
        </mxCell>
        <mxCell id="zOOIBj5y91EJWNY3sWVs-26" style="edgeStyle=orthogonalEdgeStyle;rounded=0;orthogonalLoop=1;jettySize=auto;html=1;entryX=0.5;entryY=0;entryDx=0;entryDy=0;" edge="1" parent="1" source="zOOIBj5y91EJWNY3sWVs-27" target="zOOIBj5y91EJWNY3sWVs-21">
          <mxGeometry relative="1" as="geometry" />
        </mxCell>
        <mxCell id="zOOIBj5y91EJWNY3sWVs-27" value="rerturn Error Code&amp;nbsp;011&lt;span style=&quot;font-size: medium; text-align: start;&quot;&gt;&lt;/span&gt;" style="rounded=1;whiteSpace=wrap;html=1;" vertex="1" parent="1">
          <mxGeometry x="342" y="618" width="77.5" height="40" as="geometry" />
        </mxCell>
        <mxCell id="zOOIBj5y91EJWNY3sWVs-28" value="" style="edgeStyle=orthogonalEdgeStyle;rounded=0;orthogonalLoop=1;jettySize=auto;html=1;" edge="1" parent="1" source="zOOIBj5y91EJWNY3sWVs-17" target="zOOIBj5y91EJWNY3sWVs-27">
          <mxGeometry relative="1" as="geometry" />
        </mxCell>
        <mxCell id="zOOIBj5y91EJWNY3sWVs-29" value="ใช่" style="edgeLabel;html=1;align=center;verticalAlign=middle;resizable=0;points=[];" vertex="1" connectable="0" parent="zOOIBj5y91EJWNY3sWVs-28">
          <mxGeometry x="-0.4608" y="1" relative="1" as="geometry">
            <mxPoint as="offset" />
          </mxGeometry>
        </mxCell>
        <mxCell id="zOOIBj5y91EJWNY3sWVs-30" style="edgeStyle=orthogonalEdgeStyle;rounded=0;orthogonalLoop=1;jettySize=auto;html=1;" edge="1" parent="1" source="zOOIBj5y91EJWNY3sWVs-31" target="zOOIBj5y91EJWNY3sWVs-21">
          <mxGeometry relative="1" as="geometry">
            <mxPoint x="382" y="700" as="targetPoint" />
            <Array as="points">
              <mxPoint x="322" y="508" />
              <mxPoint x="322" y="694" />
            </Array>
          </mxGeometry>
        </mxCell>
        <mxCell id="zOOIBj5y91EJWNY3sWVs-31" value="rerturn Error Code&amp;nbsp;004&lt;span style=&quot;font-size: medium; text-align: start;&quot;&gt;&lt;/span&gt;" style="rounded=1;whiteSpace=wrap;html=1;" vertex="1" parent="1">
          <mxGeometry x="342" y="488" width="77.5" height="40" as="geometry" />
        </mxCell>
        <mxCell id="zOOIBj5y91EJWNY3sWVs-32" value="" style="edgeStyle=orthogonalEdgeStyle;rounded=0;orthogonalLoop=1;jettySize=auto;html=1;" edge="1" parent="1" source="zOOIBj5y91EJWNY3sWVs-14" target="zOOIBj5y91EJWNY3sWVs-31">
          <mxGeometry relative="1" as="geometry" />
        </mxCell>
        <mxCell id="zOOIBj5y91EJWNY3sWVs-33" value="ใช่" style="edgeLabel;html=1;align=center;verticalAlign=middle;resizable=0;points=[];" vertex="1" connectable="0" parent="zOOIBj5y91EJWNY3sWVs-32">
          <mxGeometry x="-0.4608" y="2" relative="1" as="geometry">
            <mxPoint as="offset" />
          </mxGeometry>
        </mxCell>
        <mxCell id="1AWtkYxa9efMwJ9xvt7p-2" value="" style="edgeStyle=orthogonalEdgeStyle;rounded=0;orthogonalLoop=1;jettySize=auto;html=1;" edge="1" parent="1" source="zOOIBj5y91EJWNY3sWVs-34" target="1AWtkYxa9efMwJ9xvt7p-1">
          <mxGeometry relative="1" as="geometry" />
        </mxCell>
        <mxCell id="zOOIBj5y91EJWNY3sWVs-34" value="ดึงข้อมูล ActivityLog ทั้งหมด" style="rounded=1;whiteSpace=wrap;html=1;" vertex="1" parent="1">
          <mxGeometry x="554.17" y="614" width="105.85" height="48" as="geometry" />
        </mxCell>
        <mxCell id="zOOIBj5y91EJWNY3sWVs-35" value="" style="edgeStyle=orthogonalEdgeStyle;rounded=0;orthogonalLoop=1;jettySize=auto;html=1;" edge="1" parent="1" source="zOOIBj5y91EJWNY3sWVs-17" target="zOOIBj5y91EJWNY3sWVs-34">
          <mxGeometry relative="1" as="geometry" />
        </mxCell>
        <mxCell id="zOOIBj5y91EJWNY3sWVs-36" style="edgeStyle=orthogonalEdgeStyle;rounded=0;orthogonalLoop=1;jettySize=auto;html=1;entryX=1;entryY=0.5;entryDx=0;entryDy=0;" edge="1" parent="1" source="zOOIBj5y91EJWNY3sWVs-37" target="zOOIBj5y91EJWNY3sWVs-6">
          <mxGeometry relative="1" as="geometry" />
        </mxCell>
        <mxCell id="zOOIBj5y91EJWNY3sWVs-37" value="ส่งข้อมูล&lt;br&gt;ActivityLog กลับไป" style="rounded=1;whiteSpace=wrap;html=1;" vertex="1" parent="1">
          <mxGeometry x="546.27" y="815" width="121.65" height="50" as="geometry" />
        </mxCell>
        <mxCell id="1AWtkYxa9efMwJ9xvt7p-3" style="edgeStyle=orthogonalEdgeStyle;rounded=0;orthogonalLoop=1;jettySize=auto;html=1;" edge="1" parent="1" source="1AWtkYxa9efMwJ9xvt7p-1" target="zOOIBj5y91EJWNY3sWVs-37">
          <mxGeometry relative="1" as="geometry" />
        </mxCell>
        <mxCell id="1AWtkYxa9efMwJ9xvt7p-1" value="ทำการกรองข้อมูล Module ที่ซ้ำกัน" style="whiteSpace=wrap;html=1;rounded=1;" vertex="1" parent="1">
          <mxGeometry x="554.17" y="710" width="105.83" height="50" as="geometry" />
        </mxCell>
      </root>
    </mxGraphModel>
  </diagram>
  <diagram id="p3JnmMFPephA0iRDByVq" name="หน้า-2">
    <mxGraphModel dx="1664" dy="879" grid="1" gridSize="10" guides="1" tooltips="1" connect="1" arrows="1" fold="1" page="1" pageScale="1" pageWidth="827" pageHeight="1169" math="0" shadow="0">
      <root>
        <mxCell id="0" />
        <mxCell id="1" parent="0" />
        <mxCell id="fL_1BTQRdLNrVyDjXTye-1" value="เริ่ม" style="ellipse;whiteSpace=wrap;html=1;" vertex="1" parent="1">
          <mxGeometry x="212" y="130" width="80" height="40" as="geometry" />
        </mxCell>
        <mxCell id="fL_1BTQRdLNrVyDjXTye-2" value="ตรวจสอบสิทธิ์การใช้งาน" style="rounded=1;whiteSpace=wrap;html=1;" vertex="1" parent="1">
          <mxGeometry x="182" y="210" width="140" height="30" as="geometry" />
        </mxCell>
        <mxCell id="fL_1BTQRdLNrVyDjXTye-3" value="" style="edgeStyle=orthogonalEdgeStyle;rounded=0;orthogonalLoop=1;jettySize=auto;html=1;" edge="1" parent="1" source="fL_1BTQRdLNrVyDjXTye-1" target="fL_1BTQRdLNrVyDjXTye-2">
          <mxGeometry relative="1" as="geometry" />
        </mxCell>
        <mxCell id="fL_1BTQRdLNrVyDjXTye-4" value="มี ?" style="rhombus;whiteSpace=wrap;html=1;" vertex="1" parent="1">
          <mxGeometry x="222" y="270" width="60" height="60" as="geometry" />
        </mxCell>
        <mxCell id="fL_1BTQRdLNrVyDjXTye-5" value="" style="edgeStyle=orthogonalEdgeStyle;rounded=0;orthogonalLoop=1;jettySize=auto;html=1;" edge="1" parent="1" source="fL_1BTQRdLNrVyDjXTye-2" target="fL_1BTQRdLNrVyDjXTye-4">
          <mxGeometry relative="1" as="geometry" />
        </mxCell>
        <mxCell id="fL_1BTQRdLNrVyDjXTye-6" value="สิ้นสุด" style="ellipse;whiteSpace=wrap;html=1;" vertex="1" parent="1">
          <mxGeometry x="407" y="820" width="80" height="40" as="geometry" />
        </mxCell>
        <mxCell id="fL_1BTQRdLNrVyDjXTye-7" style="edgeStyle=orthogonalEdgeStyle;rounded=0;orthogonalLoop=1;jettySize=auto;html=1;entryX=0;entryY=0.5;entryDx=0;entryDy=0;" edge="1" parent="1" source="fL_1BTQRdLNrVyDjXTye-4" target="fL_1BTQRdLNrVyDjXTye-6">
          <mxGeometry relative="1" as="geometry">
            <Array as="points">
              <mxPoint x="252" y="840" />
            </Array>
          </mxGeometry>
        </mxCell>
        <mxCell id="fL_1BTQRdLNrVyDjXTye-8" value="ไม่" style="edgeLabel;html=1;align=center;verticalAlign=middle;resizable=0;points=[];" vertex="1" connectable="0" parent="fL_1BTQRdLNrVyDjXTye-7">
          <mxGeometry x="-0.8925" y="1" relative="1" as="geometry">
            <mxPoint as="offset" />
          </mxGeometry>
        </mxCell>
        <mxCell id="fL_1BTQRdLNrVyDjXTye-9" value="ตรวจสอบ Account &lt;br&gt;สถานะการใช้งาน" style="rounded=1;whiteSpace=wrap;html=1;" vertex="1" parent="1">
          <mxGeometry x="398.35" y="279" width="170" height="40" as="geometry" />
        </mxCell>
        <mxCell id="fL_1BTQRdLNrVyDjXTye-10" value="" style="edgeStyle=orthogonalEdgeStyle;rounded=0;orthogonalLoop=1;jettySize=auto;html=1;" edge="1" parent="1" source="fL_1BTQRdLNrVyDjXTye-4" target="fL_1BTQRdLNrVyDjXTye-9">
          <mxGeometry relative="1" as="geometry">
            <Array as="points">
              <mxPoint x="362" y="300" />
              <mxPoint x="362" y="300" />
            </Array>
          </mxGeometry>
        </mxCell>
        <mxCell id="fL_1BTQRdLNrVyDjXTye-11" value="ใช่" style="edgeLabel;html=1;align=center;verticalAlign=middle;resizable=0;points=[];" vertex="1" connectable="0" parent="fL_1BTQRdLNrVyDjXTye-10">
          <mxGeometry x="-0.7797" y="-1" relative="1" as="geometry">
            <mxPoint as="offset" />
          </mxGeometry>
        </mxCell>
        <mxCell id="fL_1BTQRdLNrVyDjXTye-12" value="มีใน&lt;br&gt;ระบบ &lt;br&gt;?" style="rhombus;whiteSpace=wrap;html=1;" vertex="1" parent="1">
          <mxGeometry x="445.85" y="358" width="75" height="70" as="geometry" />
        </mxCell>
        <mxCell id="fL_1BTQRdLNrVyDjXTye-13" value="" style="edgeStyle=orthogonalEdgeStyle;rounded=0;orthogonalLoop=1;jettySize=auto;html=1;" edge="1" parent="1" source="fL_1BTQRdLNrVyDjXTye-9" target="fL_1BTQRdLNrVyDjXTye-12">
          <mxGeometry relative="1" as="geometry" />
        </mxCell>
        <mxCell id="fL_1BTQRdLNrVyDjXTye-14" value="status&lt;br style=&quot;border-color: var(--border-color);&quot;&gt;= 1 ?" style="rhombus;whiteSpace=wrap;html=1;" vertex="1" parent="1">
          <mxGeometry x="453.35" y="478" width="60" height="60" as="geometry" />
        </mxCell>
        <mxCell id="fL_1BTQRdLNrVyDjXTye-15" value="" style="edgeStyle=orthogonalEdgeStyle;rounded=0;orthogonalLoop=1;jettySize=auto;html=1;" edge="1" parent="1" source="fL_1BTQRdLNrVyDjXTye-12" target="fL_1BTQRdLNrVyDjXTye-14">
          <mxGeometry relative="1" as="geometry" />
        </mxCell>
        <mxCell id="fL_1BTQRdLNrVyDjXTye-16" value="ใช่" style="edgeLabel;html=1;align=center;verticalAlign=middle;resizable=0;points=[];" vertex="1" connectable="0" parent="fL_1BTQRdLNrVyDjXTye-15">
          <mxGeometry x="-0.3254" y="2" relative="1" as="geometry">
            <mxPoint x="-2" as="offset" />
          </mxGeometry>
        </mxCell>
        <mxCell id="fL_1BTQRdLNrVyDjXTye-17" value="Locked&lt;br style=&quot;border-color: var(--border-color);&quot;&gt;= 1 ?&amp;nbsp;" style="rhombus;whiteSpace=wrap;html=1;" vertex="1" parent="1">
          <mxGeometry x="453.35" y="608" width="60" height="60" as="geometry" />
        </mxCell>
        <mxCell id="fL_1BTQRdLNrVyDjXTye-18" value="" style="edgeStyle=orthogonalEdgeStyle;rounded=0;orthogonalLoop=1;jettySize=auto;html=1;" edge="1" parent="1" source="fL_1BTQRdLNrVyDjXTye-14" target="fL_1BTQRdLNrVyDjXTye-17">
          <mxGeometry relative="1" as="geometry" />
        </mxCell>
        <mxCell id="fL_1BTQRdLNrVyDjXTye-19" value="ไม่" style="edgeLabel;html=1;align=center;verticalAlign=middle;resizable=0;points=[];" vertex="1" connectable="0" parent="fL_1BTQRdLNrVyDjXTye-18">
          <mxGeometry x="-0.3745" relative="1" as="geometry">
            <mxPoint as="offset" />
          </mxGeometry>
        </mxCell>
        <mxCell id="fL_1BTQRdLNrVyDjXTye-20" style="edgeStyle=orthogonalEdgeStyle;rounded=0;orthogonalLoop=1;jettySize=auto;html=1;entryX=0;entryY=0;entryDx=0;entryDy=0;" edge="1" parent="1" source="fL_1BTQRdLNrVyDjXTye-21" target="fL_1BTQRdLNrVyDjXTye-6">
          <mxGeometry relative="1" as="geometry">
            <Array as="points">
              <mxPoint x="390" y="820" />
              <mxPoint x="419" y="820" />
            </Array>
          </mxGeometry>
        </mxCell>
        <mxCell id="fL_1BTQRdLNrVyDjXTye-21" value="" style="ellipse;whiteSpace=wrap;html=1;aspect=fixed;" vertex="1" parent="1">
          <mxGeometry x="365.75" y="690" width="30" height="30" as="geometry" />
        </mxCell>
        <mxCell id="fL_1BTQRdLNrVyDjXTye-22" style="edgeStyle=orthogonalEdgeStyle;rounded=0;orthogonalLoop=1;jettySize=auto;html=1;" edge="1" parent="1" source="fL_1BTQRdLNrVyDjXTye-23" target="fL_1BTQRdLNrVyDjXTye-21">
          <mxGeometry relative="1" as="geometry">
            <Array as="points">
              <mxPoint x="282" y="393" />
              <mxPoint x="282" y="710" />
            </Array>
          </mxGeometry>
        </mxCell>
        <mxCell id="fL_1BTQRdLNrVyDjXTye-23" value="rerturn Error Code&amp;nbsp;001&lt;span style=&quot;font-size: medium; text-align: start;&quot;&gt;&lt;/span&gt;" style="rounded=1;whiteSpace=wrap;html=1;" vertex="1" parent="1">
          <mxGeometry x="292" y="373" width="77.5" height="40" as="geometry" />
        </mxCell>
        <mxCell id="fL_1BTQRdLNrVyDjXTye-24" style="edgeStyle=orthogonalEdgeStyle;rounded=0;orthogonalLoop=1;jettySize=auto;html=1;" edge="1" parent="1" source="fL_1BTQRdLNrVyDjXTye-12" target="fL_1BTQRdLNrVyDjXTye-23">
          <mxGeometry relative="1" as="geometry">
            <mxPoint x="382.1" y="498" as="targetPoint" />
          </mxGeometry>
        </mxCell>
        <mxCell id="fL_1BTQRdLNrVyDjXTye-25" value="ไม่" style="edgeLabel;html=1;align=center;verticalAlign=middle;resizable=0;points=[];" vertex="1" connectable="0" parent="fL_1BTQRdLNrVyDjXTye-24">
          <mxGeometry x="-0.6573" y="2" relative="1" as="geometry">
            <mxPoint as="offset" />
          </mxGeometry>
        </mxCell>
        <mxCell id="fL_1BTQRdLNrVyDjXTye-26" style="edgeStyle=orthogonalEdgeStyle;rounded=0;orthogonalLoop=1;jettySize=auto;html=1;entryX=0.5;entryY=0;entryDx=0;entryDy=0;" edge="1" parent="1" source="fL_1BTQRdLNrVyDjXTye-27" target="fL_1BTQRdLNrVyDjXTye-21">
          <mxGeometry relative="1" as="geometry" />
        </mxCell>
        <mxCell id="fL_1BTQRdLNrVyDjXTye-27" value="rerturn Error Code&amp;nbsp;011&lt;span style=&quot;font-size: medium; text-align: start;&quot;&gt;&lt;/span&gt;" style="rounded=1;whiteSpace=wrap;html=1;" vertex="1" parent="1">
          <mxGeometry x="342" y="618" width="77.5" height="40" as="geometry" />
        </mxCell>
        <mxCell id="fL_1BTQRdLNrVyDjXTye-28" value="" style="edgeStyle=orthogonalEdgeStyle;rounded=0;orthogonalLoop=1;jettySize=auto;html=1;" edge="1" parent="1" source="fL_1BTQRdLNrVyDjXTye-17" target="fL_1BTQRdLNrVyDjXTye-27">
          <mxGeometry relative="1" as="geometry" />
        </mxCell>
        <mxCell id="fL_1BTQRdLNrVyDjXTye-29" value="ใช่" style="edgeLabel;html=1;align=center;verticalAlign=middle;resizable=0;points=[];" vertex="1" connectable="0" parent="fL_1BTQRdLNrVyDjXTye-28">
          <mxGeometry x="-0.4608" y="1" relative="1" as="geometry">
            <mxPoint as="offset" />
          </mxGeometry>
        </mxCell>
        <mxCell id="fL_1BTQRdLNrVyDjXTye-30" style="edgeStyle=orthogonalEdgeStyle;rounded=0;orthogonalLoop=1;jettySize=auto;html=1;" edge="1" parent="1" source="fL_1BTQRdLNrVyDjXTye-31" target="fL_1BTQRdLNrVyDjXTye-21">
          <mxGeometry relative="1" as="geometry">
            <mxPoint x="382" y="700" as="targetPoint" />
            <Array as="points">
              <mxPoint x="322" y="508" />
              <mxPoint x="322" y="694" />
            </Array>
          </mxGeometry>
        </mxCell>
        <mxCell id="fL_1BTQRdLNrVyDjXTye-31" value="rerturn Error Code&amp;nbsp;004&lt;span style=&quot;font-size: medium; text-align: start;&quot;&gt;&lt;/span&gt;" style="rounded=1;whiteSpace=wrap;html=1;" vertex="1" parent="1">
          <mxGeometry x="342" y="488" width="77.5" height="40" as="geometry" />
        </mxCell>
        <mxCell id="fL_1BTQRdLNrVyDjXTye-32" value="" style="edgeStyle=orthogonalEdgeStyle;rounded=0;orthogonalLoop=1;jettySize=auto;html=1;" edge="1" parent="1" source="fL_1BTQRdLNrVyDjXTye-14" target="fL_1BTQRdLNrVyDjXTye-31">
          <mxGeometry relative="1" as="geometry" />
        </mxCell>
        <mxCell id="fL_1BTQRdLNrVyDjXTye-33" value="ใช่" style="edgeLabel;html=1;align=center;verticalAlign=middle;resizable=0;points=[];" vertex="1" connectable="0" parent="fL_1BTQRdLNrVyDjXTye-32">
          <mxGeometry x="-0.4608" y="2" relative="1" as="geometry">
            <mxPoint as="offset" />
          </mxGeometry>
        </mxCell>
        <mxCell id="fL_1BTQRdLNrVyDjXTye-34" value="" style="edgeStyle=orthogonalEdgeStyle;rounded=0;orthogonalLoop=1;jettySize=auto;html=1;entryX=0.5;entryY=0;entryDx=0;entryDy=0;" edge="1" parent="1" source="fL_1BTQRdLNrVyDjXTye-35" target="fL_1BTQRdLNrVyDjXTye-38">
          <mxGeometry relative="1" as="geometry">
            <mxPoint x="607.0999999999999" y="710" as="targetPoint" />
          </mxGeometry>
        </mxCell>
        <mxCell id="fL_1BTQRdLNrVyDjXTye-35" value="ดึงข้อมูล ActivityLog ทั้งหมด" style="rounded=1;whiteSpace=wrap;html=1;" vertex="1" parent="1">
          <mxGeometry x="554.17" y="614" width="105.85" height="48" as="geometry" />
        </mxCell>
        <mxCell id="fL_1BTQRdLNrVyDjXTye-36" value="" style="edgeStyle=orthogonalEdgeStyle;rounded=0;orthogonalLoop=1;jettySize=auto;html=1;" edge="1" parent="1" source="fL_1BTQRdLNrVyDjXTye-17" target="fL_1BTQRdLNrVyDjXTye-35">
          <mxGeometry relative="1" as="geometry" />
        </mxCell>
        <mxCell id="fL_1BTQRdLNrVyDjXTye-37" style="edgeStyle=orthogonalEdgeStyle;rounded=0;orthogonalLoop=1;jettySize=auto;html=1;entryX=1;entryY=0.5;entryDx=0;entryDy=0;" edge="1" parent="1" source="fL_1BTQRdLNrVyDjXTye-38" target="fL_1BTQRdLNrVyDjXTye-6">
          <mxGeometry relative="1" as="geometry" />
        </mxCell>
        <mxCell id="fL_1BTQRdLNrVyDjXTye-38" value="ส่งข้อมูล&lt;br&gt;ActivityLog กลับไป" style="rounded=1;whiteSpace=wrap;html=1;" vertex="1" parent="1">
          <mxGeometry x="546.27" y="730" width="121.65" height="50" as="geometry" />
        </mxCell>
      </root>
    </mxGraphModel>
  </diagram>
  <diagram id="DjrhyOAgOkbE_VglRn3I" name="หน้า-3">
    <mxGraphModel dx="660" dy="349" grid="1" gridSize="10" guides="1" tooltips="1" connect="1" arrows="1" fold="1" page="1" pageScale="1" pageWidth="827" pageHeight="1169" math="0" shadow="0">
      <root>
        <mxCell id="0" />
        <mxCell id="1" parent="0" />
        <mxCell id="vbTUUNpnsbkGGMgjWKqP-1" value="เริ่ม" style="ellipse;whiteSpace=wrap;html=1;" vertex="1" parent="1">
          <mxGeometry x="222" y="140" width="80" height="40" as="geometry" />
        </mxCell>
        <mxCell id="vbTUUNpnsbkGGMgjWKqP-2" value="ตรวจสอบสิทธิ์การใช้งาน" style="rounded=1;whiteSpace=wrap;html=1;" vertex="1" parent="1">
          <mxGeometry x="192" y="220" width="140" height="30" as="geometry" />
        </mxCell>
        <mxCell id="vbTUUNpnsbkGGMgjWKqP-3" value="" style="edgeStyle=orthogonalEdgeStyle;rounded=0;orthogonalLoop=1;jettySize=auto;html=1;" edge="1" parent="1" source="vbTUUNpnsbkGGMgjWKqP-1" target="vbTUUNpnsbkGGMgjWKqP-2">
          <mxGeometry relative="1" as="geometry" />
        </mxCell>
        <mxCell id="vbTUUNpnsbkGGMgjWKqP-4" value="มี ?" style="rhombus;whiteSpace=wrap;html=1;" vertex="1" parent="1">
          <mxGeometry x="232" y="280" width="60" height="60" as="geometry" />
        </mxCell>
        <mxCell id="vbTUUNpnsbkGGMgjWKqP-5" value="" style="edgeStyle=orthogonalEdgeStyle;rounded=0;orthogonalLoop=1;jettySize=auto;html=1;" edge="1" parent="1" source="vbTUUNpnsbkGGMgjWKqP-2" target="vbTUUNpnsbkGGMgjWKqP-4">
          <mxGeometry relative="1" as="geometry" />
        </mxCell>
        <mxCell id="vbTUUNpnsbkGGMgjWKqP-6" value="สิ้นสุด" style="ellipse;whiteSpace=wrap;html=1;" vertex="1" parent="1">
          <mxGeometry x="417" y="830" width="80" height="40" as="geometry" />
        </mxCell>
        <mxCell id="vbTUUNpnsbkGGMgjWKqP-7" style="edgeStyle=orthogonalEdgeStyle;rounded=0;orthogonalLoop=1;jettySize=auto;html=1;entryX=0;entryY=0.5;entryDx=0;entryDy=0;" edge="1" parent="1" source="vbTUUNpnsbkGGMgjWKqP-4" target="vbTUUNpnsbkGGMgjWKqP-6">
          <mxGeometry relative="1" as="geometry">
            <Array as="points">
              <mxPoint x="262" y="850" />
            </Array>
          </mxGeometry>
        </mxCell>
        <mxCell id="vbTUUNpnsbkGGMgjWKqP-8" value="ไม่" style="edgeLabel;html=1;align=center;verticalAlign=middle;resizable=0;points=[];" vertex="1" connectable="0" parent="vbTUUNpnsbkGGMgjWKqP-7">
          <mxGeometry x="-0.8925" y="1" relative="1" as="geometry">
            <mxPoint as="offset" />
          </mxGeometry>
        </mxCell>
        <mxCell id="vbTUUNpnsbkGGMgjWKqP-9" value="ตรวจสอบ Account &lt;br&gt;สถานะการใช้งาน" style="rounded=1;whiteSpace=wrap;html=1;" vertex="1" parent="1">
          <mxGeometry x="408.35" y="289" width="170" height="40" as="geometry" />
        </mxCell>
        <mxCell id="vbTUUNpnsbkGGMgjWKqP-10" value="" style="edgeStyle=orthogonalEdgeStyle;rounded=0;orthogonalLoop=1;jettySize=auto;html=1;" edge="1" parent="1" source="vbTUUNpnsbkGGMgjWKqP-4" target="vbTUUNpnsbkGGMgjWKqP-9">
          <mxGeometry relative="1" as="geometry">
            <Array as="points">
              <mxPoint x="372" y="310" />
              <mxPoint x="372" y="310" />
            </Array>
          </mxGeometry>
        </mxCell>
        <mxCell id="vbTUUNpnsbkGGMgjWKqP-11" value="ใช่" style="edgeLabel;html=1;align=center;verticalAlign=middle;resizable=0;points=[];" vertex="1" connectable="0" parent="vbTUUNpnsbkGGMgjWKqP-10">
          <mxGeometry x="-0.7797" y="-1" relative="1" as="geometry">
            <mxPoint as="offset" />
          </mxGeometry>
        </mxCell>
        <mxCell id="vbTUUNpnsbkGGMgjWKqP-12" value="มีใน&lt;br&gt;ระบบ &lt;br&gt;?" style="rhombus;whiteSpace=wrap;html=1;" vertex="1" parent="1">
          <mxGeometry x="455.85" y="368" width="75" height="70" as="geometry" />
        </mxCell>
        <mxCell id="vbTUUNpnsbkGGMgjWKqP-13" value="" style="edgeStyle=orthogonalEdgeStyle;rounded=0;orthogonalLoop=1;jettySize=auto;html=1;" edge="1" parent="1" source="vbTUUNpnsbkGGMgjWKqP-9" target="vbTUUNpnsbkGGMgjWKqP-12">
          <mxGeometry relative="1" as="geometry" />
        </mxCell>
        <mxCell id="vbTUUNpnsbkGGMgjWKqP-14" value="status&lt;br style=&quot;border-color: var(--border-color);&quot;&gt;= 1 ?" style="rhombus;whiteSpace=wrap;html=1;" vertex="1" parent="1">
          <mxGeometry x="463.35" y="488" width="60" height="60" as="geometry" />
        </mxCell>
        <mxCell id="vbTUUNpnsbkGGMgjWKqP-15" value="" style="edgeStyle=orthogonalEdgeStyle;rounded=0;orthogonalLoop=1;jettySize=auto;html=1;" edge="1" parent="1" source="vbTUUNpnsbkGGMgjWKqP-12" target="vbTUUNpnsbkGGMgjWKqP-14">
          <mxGeometry relative="1" as="geometry" />
        </mxCell>
        <mxCell id="vbTUUNpnsbkGGMgjWKqP-16" value="ใช่" style="edgeLabel;html=1;align=center;verticalAlign=middle;resizable=0;points=[];" vertex="1" connectable="0" parent="vbTUUNpnsbkGGMgjWKqP-15">
          <mxGeometry x="-0.3254" y="2" relative="1" as="geometry">
            <mxPoint x="-2" as="offset" />
          </mxGeometry>
        </mxCell>
        <mxCell id="vbTUUNpnsbkGGMgjWKqP-17" value="Locked&lt;br style=&quot;border-color: var(--border-color);&quot;&gt;= 1 ?&amp;nbsp;" style="rhombus;whiteSpace=wrap;html=1;" vertex="1" parent="1">
          <mxGeometry x="463.35" y="618" width="60" height="60" as="geometry" />
        </mxCell>
        <mxCell id="vbTUUNpnsbkGGMgjWKqP-18" value="" style="edgeStyle=orthogonalEdgeStyle;rounded=0;orthogonalLoop=1;jettySize=auto;html=1;" edge="1" parent="1" source="vbTUUNpnsbkGGMgjWKqP-14" target="vbTUUNpnsbkGGMgjWKqP-17">
          <mxGeometry relative="1" as="geometry" />
        </mxCell>
        <mxCell id="vbTUUNpnsbkGGMgjWKqP-19" value="ไม่" style="edgeLabel;html=1;align=center;verticalAlign=middle;resizable=0;points=[];" vertex="1" connectable="0" parent="vbTUUNpnsbkGGMgjWKqP-18">
          <mxGeometry x="-0.3745" relative="1" as="geometry">
            <mxPoint as="offset" />
          </mxGeometry>
        </mxCell>
        <mxCell id="vbTUUNpnsbkGGMgjWKqP-20" style="edgeStyle=orthogonalEdgeStyle;rounded=0;orthogonalLoop=1;jettySize=auto;html=1;entryX=0;entryY=0;entryDx=0;entryDy=0;" edge="1" parent="1" source="vbTUUNpnsbkGGMgjWKqP-21" target="vbTUUNpnsbkGGMgjWKqP-6">
          <mxGeometry relative="1" as="geometry">
            <Array as="points">
              <mxPoint x="400" y="830" />
              <mxPoint x="429" y="830" />
            </Array>
          </mxGeometry>
        </mxCell>
        <mxCell id="vbTUUNpnsbkGGMgjWKqP-21" value="" style="ellipse;whiteSpace=wrap;html=1;aspect=fixed;" vertex="1" parent="1">
          <mxGeometry x="375.75" y="700" width="30" height="30" as="geometry" />
        </mxCell>
        <mxCell id="vbTUUNpnsbkGGMgjWKqP-22" style="edgeStyle=orthogonalEdgeStyle;rounded=0;orthogonalLoop=1;jettySize=auto;html=1;" edge="1" parent="1" source="vbTUUNpnsbkGGMgjWKqP-23" target="vbTUUNpnsbkGGMgjWKqP-21">
          <mxGeometry relative="1" as="geometry">
            <Array as="points">
              <mxPoint x="292" y="403" />
              <mxPoint x="292" y="720" />
            </Array>
          </mxGeometry>
        </mxCell>
        <mxCell id="vbTUUNpnsbkGGMgjWKqP-23" value="rerturn Error Code&amp;nbsp;001&lt;span style=&quot;font-size: medium; text-align: start;&quot;&gt;&lt;/span&gt;" style="rounded=1;whiteSpace=wrap;html=1;" vertex="1" parent="1">
          <mxGeometry x="302" y="383" width="77.5" height="40" as="geometry" />
        </mxCell>
        <mxCell id="vbTUUNpnsbkGGMgjWKqP-24" style="edgeStyle=orthogonalEdgeStyle;rounded=0;orthogonalLoop=1;jettySize=auto;html=1;" edge="1" parent="1" source="vbTUUNpnsbkGGMgjWKqP-12" target="vbTUUNpnsbkGGMgjWKqP-23">
          <mxGeometry relative="1" as="geometry">
            <mxPoint x="392.1" y="508" as="targetPoint" />
          </mxGeometry>
        </mxCell>
        <mxCell id="vbTUUNpnsbkGGMgjWKqP-25" value="ไม่" style="edgeLabel;html=1;align=center;verticalAlign=middle;resizable=0;points=[];" vertex="1" connectable="0" parent="vbTUUNpnsbkGGMgjWKqP-24">
          <mxGeometry x="-0.6573" y="2" relative="1" as="geometry">
            <mxPoint as="offset" />
          </mxGeometry>
        </mxCell>
        <mxCell id="vbTUUNpnsbkGGMgjWKqP-26" style="edgeStyle=orthogonalEdgeStyle;rounded=0;orthogonalLoop=1;jettySize=auto;html=1;entryX=0.5;entryY=0;entryDx=0;entryDy=0;" edge="1" parent="1" source="vbTUUNpnsbkGGMgjWKqP-27" target="vbTUUNpnsbkGGMgjWKqP-21">
          <mxGeometry relative="1" as="geometry" />
        </mxCell>
        <mxCell id="vbTUUNpnsbkGGMgjWKqP-27" value="rerturn Error Code&amp;nbsp;011&lt;span style=&quot;font-size: medium; text-align: start;&quot;&gt;&lt;/span&gt;" style="rounded=1;whiteSpace=wrap;html=1;" vertex="1" parent="1">
          <mxGeometry x="352" y="628" width="77.5" height="40" as="geometry" />
        </mxCell>
        <mxCell id="vbTUUNpnsbkGGMgjWKqP-28" value="" style="edgeStyle=orthogonalEdgeStyle;rounded=0;orthogonalLoop=1;jettySize=auto;html=1;" edge="1" parent="1" source="vbTUUNpnsbkGGMgjWKqP-17" target="vbTUUNpnsbkGGMgjWKqP-27">
          <mxGeometry relative="1" as="geometry" />
        </mxCell>
        <mxCell id="vbTUUNpnsbkGGMgjWKqP-29" value="ใช่" style="edgeLabel;html=1;align=center;verticalAlign=middle;resizable=0;points=[];" vertex="1" connectable="0" parent="vbTUUNpnsbkGGMgjWKqP-28">
          <mxGeometry x="-0.4608" y="1" relative="1" as="geometry">
            <mxPoint as="offset" />
          </mxGeometry>
        </mxCell>
        <mxCell id="vbTUUNpnsbkGGMgjWKqP-30" style="edgeStyle=orthogonalEdgeStyle;rounded=0;orthogonalLoop=1;jettySize=auto;html=1;" edge="1" parent="1" source="vbTUUNpnsbkGGMgjWKqP-31" target="vbTUUNpnsbkGGMgjWKqP-21">
          <mxGeometry relative="1" as="geometry">
            <mxPoint x="392" y="710" as="targetPoint" />
            <Array as="points">
              <mxPoint x="332" y="518" />
              <mxPoint x="332" y="704" />
            </Array>
          </mxGeometry>
        </mxCell>
        <mxCell id="vbTUUNpnsbkGGMgjWKqP-31" value="rerturn Error Code&amp;nbsp;004&lt;span style=&quot;font-size: medium; text-align: start;&quot;&gt;&lt;/span&gt;" style="rounded=1;whiteSpace=wrap;html=1;" vertex="1" parent="1">
          <mxGeometry x="352" y="498" width="77.5" height="40" as="geometry" />
        </mxCell>
        <mxCell id="vbTUUNpnsbkGGMgjWKqP-32" value="" style="edgeStyle=orthogonalEdgeStyle;rounded=0;orthogonalLoop=1;jettySize=auto;html=1;" edge="1" parent="1" source="vbTUUNpnsbkGGMgjWKqP-14" target="vbTUUNpnsbkGGMgjWKqP-31">
          <mxGeometry relative="1" as="geometry" />
        </mxCell>
        <mxCell id="vbTUUNpnsbkGGMgjWKqP-33" value="ใช่" style="edgeLabel;html=1;align=center;verticalAlign=middle;resizable=0;points=[];" vertex="1" connectable="0" parent="vbTUUNpnsbkGGMgjWKqP-32">
          <mxGeometry x="-0.4608" y="2" relative="1" as="geometry">
            <mxPoint as="offset" />
          </mxGeometry>
        </mxCell>
        <mxCell id="vbTUUNpnsbkGGMgjWKqP-34" value="" style="edgeStyle=orthogonalEdgeStyle;rounded=0;orthogonalLoop=1;jettySize=auto;html=1;" edge="1" parent="1" source="vbTUUNpnsbkGGMgjWKqP-35" target="vbTUUNpnsbkGGMgjWKqP-40">
          <mxGeometry relative="1" as="geometry">
            <mxPoint x="617.0949999999998" y="740" as="targetPoint" />
          </mxGeometry>
        </mxCell>
        <mxCell id="vbTUUNpnsbkGGMgjWKqP-35" value="ดึงข้อมูล ActivityLog ทั้งหมด" style="rounded=1;whiteSpace=wrap;html=1;" vertex="1" parent="1">
          <mxGeometry x="541.24" y="624" width="105.85" height="48" as="geometry" />
        </mxCell>
        <mxCell id="vbTUUNpnsbkGGMgjWKqP-36" value="" style="edgeStyle=orthogonalEdgeStyle;rounded=0;orthogonalLoop=1;jettySize=auto;html=1;" edge="1" parent="1" source="vbTUUNpnsbkGGMgjWKqP-17" target="vbTUUNpnsbkGGMgjWKqP-35">
          <mxGeometry relative="1" as="geometry" />
        </mxCell>
        <mxCell id="vbTUUNpnsbkGGMgjWKqP-41" style="edgeStyle=orthogonalEdgeStyle;rounded=0;orthogonalLoop=1;jettySize=auto;html=1;" edge="1" parent="1" source="vbTUUNpnsbkGGMgjWKqP-40" target="vbTUUNpnsbkGGMgjWKqP-46">
          <mxGeometry relative="1" as="geometry">
            <mxPoint x="617" y="840" as="targetPoint" />
          </mxGeometry>
        </mxCell>
        <mxCell id="vbTUUNpnsbkGGMgjWKqP-43" value="ไม่" style="edgeLabel;html=1;align=center;verticalAlign=middle;resizable=0;points=[];" vertex="1" connectable="0" parent="vbTUUNpnsbkGGMgjWKqP-41">
          <mxGeometry x="-0.2857" y="1" relative="1" as="geometry">
            <mxPoint as="offset" />
          </mxGeometry>
        </mxCell>
        <mxCell id="vbTUUNpnsbkGGMgjWKqP-42" value="ใช่" style="edgeStyle=orthogonalEdgeStyle;rounded=0;orthogonalLoop=1;jettySize=auto;html=1;entryX=0;entryY=0.5;entryDx=0;entryDy=0;" edge="1" parent="1" source="vbTUUNpnsbkGGMgjWKqP-40" target="vbTUUNpnsbkGGMgjWKqP-44">
          <mxGeometry relative="1" as="geometry">
            <mxPoint x="690" y="770" as="targetPoint" />
          </mxGeometry>
        </mxCell>
        <mxCell id="vbTUUNpnsbkGGMgjWKqP-40" value="มี ?" style="rhombus;whiteSpace=wrap;html=1;" vertex="1" parent="1">
          <mxGeometry x="564.1600000000001" y="700" width="60" height="60" as="geometry" />
        </mxCell>
        <mxCell id="vbTUUNpnsbkGGMgjWKqP-49" style="edgeStyle=orthogonalEdgeStyle;rounded=0;orthogonalLoop=1;jettySize=auto;html=1;" edge="1" parent="1" source="vbTUUNpnsbkGGMgjWKqP-44" target="vbTUUNpnsbkGGMgjWKqP-48">
          <mxGeometry relative="1" as="geometry" />
        </mxCell>
        <mxCell id="vbTUUNpnsbkGGMgjWKqP-44" value="นำข้อมูลที่ได้ มาสร้างเป็นไฟล์ Excel" style="rounded=1;whiteSpace=wrap;html=1;" vertex="1" parent="1">
          <mxGeometry x="680" y="706" width="105.85" height="48" as="geometry" />
        </mxCell>
        <mxCell id="vbTUUNpnsbkGGMgjWKqP-47" style="edgeStyle=orthogonalEdgeStyle;rounded=0;orthogonalLoop=1;jettySize=auto;html=1;" edge="1" parent="1" source="vbTUUNpnsbkGGMgjWKqP-46" target="vbTUUNpnsbkGGMgjWKqP-6">
          <mxGeometry relative="1" as="geometry" />
        </mxCell>
        <mxCell id="vbTUUNpnsbkGGMgjWKqP-46" value="return Error &lt;br&gt;Code 049" style="rounded=1;whiteSpace=wrap;html=1;" vertex="1" parent="1">
          <mxGeometry x="556.2499999999999" y="830" width="75.83" height="40" as="geometry" />
        </mxCell>
        <mxCell id="vbTUUNpnsbkGGMgjWKqP-51" value="" style="edgeStyle=orthogonalEdgeStyle;rounded=0;orthogonalLoop=1;jettySize=auto;html=1;" edge="1" parent="1" source="vbTUUNpnsbkGGMgjWKqP-48" target="vbTUUNpnsbkGGMgjWKqP-50">
          <mxGeometry relative="1" as="geometry">
            <Array as="points">
              <mxPoint x="680" y="820" />
            </Array>
          </mxGeometry>
        </mxCell>
        <mxCell id="vbTUUNpnsbkGGMgjWKqP-57" value="ไม่" style="edgeLabel;html=1;align=center;verticalAlign=middle;resizable=0;points=[];" vertex="1" connectable="0" parent="vbTUUNpnsbkGGMgjWKqP-51">
          <mxGeometry x="0.3276" y="-1" relative="1" as="geometry">
            <mxPoint as="offset" />
          </mxGeometry>
        </mxCell>
        <mxCell id="vbTUUNpnsbkGGMgjWKqP-54" style="edgeStyle=orthogonalEdgeStyle;rounded=0;orthogonalLoop=1;jettySize=auto;html=1;" edge="1" parent="1" source="vbTUUNpnsbkGGMgjWKqP-48" target="vbTUUNpnsbkGGMgjWKqP-53">
          <mxGeometry relative="1" as="geometry">
            <Array as="points">
              <mxPoint x="779" y="820" />
            </Array>
          </mxGeometry>
        </mxCell>
        <mxCell id="vbTUUNpnsbkGGMgjWKqP-56" value="ใช่" style="edgeLabel;html=1;align=center;verticalAlign=middle;resizable=0;points=[];" vertex="1" connectable="0" parent="vbTUUNpnsbkGGMgjWKqP-54">
          <mxGeometry x="-0.7785" relative="1" as="geometry">
            <mxPoint y="30" as="offset" />
          </mxGeometry>
        </mxCell>
        <mxCell id="vbTUUNpnsbkGGMgjWKqP-48" value="สำเร็จ ?" style="rhombus;whiteSpace=wrap;html=1;" vertex="1" parent="1">
          <mxGeometry x="702.92" y="790" width="60" height="60" as="geometry" />
        </mxCell>
        <mxCell id="vbTUUNpnsbkGGMgjWKqP-50" value="return Error &lt;br&gt;Code 099" style="rounded=1;whiteSpace=wrap;html=1;" vertex="1" parent="1">
          <mxGeometry x="640" y="870" width="77.08" height="40" as="geometry" />
        </mxCell>
        <mxCell id="vbTUUNpnsbkGGMgjWKqP-55" style="edgeStyle=orthogonalEdgeStyle;rounded=0;orthogonalLoop=1;jettySize=auto;html=1;" edge="1" parent="1" source="vbTUUNpnsbkGGMgjWKqP-53" target="vbTUUNpnsbkGGMgjWKqP-6">
          <mxGeometry relative="1" as="geometry" />
        </mxCell>
        <mxCell id="vbTUUNpnsbkGGMgjWKqP-53" value="ส่งกลับข้อมูล URL ที่เก็บไฟลในเซิฟเวอร์" style="rounded=1;whiteSpace=wrap;html=1;" vertex="1" parent="1">
          <mxGeometry x="717.08" y="920" width="97.08" height="50" as="geometry" />
        </mxCell>
      </root>
    </mxGraphModel>
  </diagram>
</mxfile>
